<?xml version="1.0" standalone="no"?>
<!DOCTYPE svg PUBLIC "-//W3C//DTD SVG 20010904//EN"
 "http://www.w3.org/TR/2001/REC-SVG-20010904/DTD/svg10.dtd">
<svg version="1.0" xmlns="http://www.w3.org/2000/svg"
 width="1024.000000pt" height="1024.000000pt" viewBox="0 0 1024.000000 1024.000000"
 preserveAspectRatio="xMidYMid meet">

<g transform="translate(0.000000,1024.000000) scale(0.100000,-0.100000)"
fill="#000000" stroke="none">
<path d="M5634 8135 c-32 -16 -59 -39 -77 -67 -25 -38 -28 -50 -25 -105 3 -46
10 -70 28 -96 14 -18 125 -123 247 -233 l222 -199 -107 -109 c-431 -437 -858
-751 -1347 -991 -383 -187 -760 -316 -1230 -420 -66 -15 -149 -38 -184 -51
-232 -87 -402 -288 -495 -582 -94 -300 -118 -681 -66 -1043 139 -952 872
-1717 1890 -1968 584 -144 1173 -112 1683 90 744 296 1275 901 1441 1642 160
711 -28 1390 -515 1862 -135 131 -192 175 -333 260 -173 103 -337 152 -432
126 -54 -15 -88 -42 -122 -99 -23 -39 -27 -58 -27 -117 1 -125 45 -183 206
-265 157 -79 259 -151 362 -254 192 -193 315 -421 379 -706 20 -91 23 -131 22
-300 0 -172 -3 -210 -27 -321 -91 -431 -309 -773 -662 -1039 -283 -213 -614
-339 -1000 -381 -153 -16 -466 -6 -618 20 -806 141 -1395 621 -1596 1301 -54
184 -65 272 -65 510 -1 230 9 304 60 452 46 136 91 190 166 202 85 13 407 88
588 136 968 257 1784 712 2515 1404 43 41 80 74 81 73 2 -1 100 -98 220 -216
222 -219 265 -251 334 -251 56 0 115 33 147 81 l28 43 3 735 c3 818 5 790 -63
850 -19 16 -51 35 -72 40 -25 7 -291 11 -774 11 l-735 0 -50 -25z"/>
<path d="M5377 5770 c-25 -20 -26 -26 -29 -133 l-3 -111 -80 -21 c-172 -46
-280 -107 -383 -220 -131 -143 -177 -322 -137 -532 28 -145 102 -257 231 -349
89 -64 192 -105 424 -168 332 -92 411 -149 398 -286 -16 -164 -218 -237 -487
-174 -85 19 -230 89 -311 149 -77 58 -109 62 -149 19 -47 -48 -181 -254 -181
-277 0 -36 33 -75 109 -133 120 -90 292 -161 451 -186 l80 -12 0 -113 c0 -177
10 -187 200 -181 119 3 122 4 146 31 22 26 24 36 24 147 l0 119 38 7 c61 11
202 73 274 120 83 56 184 164 226 243 45 82 72 196 72 297 0 169 -43 278 -155
389 -58 59 -92 82 -184 128 -104 52 -160 72 -481 171 -169 52 -237 104 -254
195 -10 53 18 125 62 161 52 43 118 60 236 60 148 0 267 -35 416 -122 72 -42
86 -45 117 -23 26 18 162 238 169 275 11 51 -86 134 -241 206 -68 31 -210 74
-247 74 -16 0 -18 10 -18 110 0 104 -1 112 -25 135 -23 24 -29 25 -153 25
-115 0 -132 -2 -155 -20z"/>
</g>
</svg>
